<svg width="16" height="16" viewBox="0 0 16 16" fill="none" xmlns="http://www.w3.org/2000/svg">
<path fill-rule="evenodd" clip-rule="evenodd" d="M10.6345 6.01727C10.6345 8.56731 8.56731 10.6345 6.01727 10.6345C3.46722 10.6345 1.4 8.56731 1.4 6.01727C1.4 3.46722 3.46722 1.4 6.01727 1.4C8.56731 1.4 10.6345 3.46722 10.6345 6.01727ZM9.75141 10.736C8.7254 11.549 7.42803 12.0345 6.01727 12.0345C2.69402 12.0345 0 9.34051 0 6.01727C0 2.69402 2.69402 0 6.01727 0C9.34051 0 12.0345 2.69402 12.0345 6.01727C12.0345 7.42529 11.5509 8.72036 10.7407 9.74544L15.4949 14.4996C15.7683 14.773 15.7683 15.2162 15.4949 15.4896C15.2215 15.7629 14.7783 15.7629 14.505 15.4896L9.75141 10.736Z" fill="black"/>
</svg>
